<?xml version="1.0" encoding="UTF-8"?>
<svg xmlns="http://www.w3.org/2000/svg" xmlns:xlink="http://www.w3.org/1999/xlink" width="25px" height="25px" viewBox="0 0 25 25" version="1.1">
<g id="surface1">
<path style=" stroke:none;fill-rule:nonzero;fill:rgb(0%,0%,0%);fill-opacity:1;" d="M 11.667969 0.0117188 C 9.003906 0.203125 6.492188 1.207031 4.480469 2.894531 C 3.136719 4.019531 2.089844 5.339844 1.304688 6.917969 C 0.617188 8.289062 0.234375 9.621094 0.046875 11.25 C -0.00390625 11.714844 -0.00390625 13.285156 0.046875 13.75 C 0.234375 15.378906 0.617188 16.710938 1.304688 18.082031 C 1.992188 19.457031 2.867188 20.632812 3.96875 21.652344 C 4.882812 22.503906 5.800781 23.136719 6.917969 23.695312 C 8.289062 24.382812 9.621094 24.765625 11.25 24.953125 C 11.714844 25.003906 13.285156 25.003906 13.75 24.953125 C 15.378906 24.765625 16.710938 24.382812 18.082031 23.695312 C 19.347656 23.0625 20.347656 22.339844 21.34375 21.347656 C 21.761719 20.925781 21.984375 20.679688 22.324219 20.25 C 23.652344 18.574219 24.566406 16.476562 24.871094 14.363281 C 24.976562 13.644531 24.988281 13.472656 24.988281 12.5 C 24.988281 11.527344 24.976562 11.355469 24.871094 10.636719 C 24.5625 8.511719 23.628906 6.367188 22.285156 4.699219 C 21.320312 3.503906 20.230469 2.546875 18.917969 1.757812 C 18.464844 1.484375 17.652344 1.082031 17.144531 0.882812 C 16.035156 0.441406 15.019531 0.191406 13.769531 0.0507812 C 13.550781 0.0234375 13.238281 0.015625 12.625 0.0117188 C 12.160156 0.0078125 11.730469 0.0078125 11.667969 0.0117188 Z M 15.3125 4.160156 C 15.3125 4.25 15.328125 4.421875 15.34375 4.539062 C 15.527344 5.828125 16.34375 6.945312 17.523438 7.511719 C 17.960938 7.722656 18.386719 7.832031 18.902344 7.878906 L 19.1875 7.902344 L 19.1875 10.714844 L 18.890625 10.703125 C 17.707031 10.648438 16.527344 10.273438 15.5625 9.644531 L 15.316406 9.480469 L 15.304688 12.527344 C 15.296875 15.828125 15.300781 15.699219 15.183594 16.25 C 15.082031 16.730469 14.824219 17.367188 14.558594 17.804688 C 14.398438 18.074219 14.117188 18.441406 13.882812 18.683594 C 12.660156 19.972656 10.863281 20.539062 9.125 20.1875 C 7.128906 19.785156 5.535156 18.214844 5.105469 16.230469 C 4.996094 15.710938 4.964844 14.984375 5.03125 14.46875 C 5.257812 12.742188 6.34375 11.238281 7.90625 10.488281 C 8.386719 10.257812 8.859375 10.109375 9.375 10.027344 C 9.636719 9.988281 10.503906 9.972656 10.734375 10.007812 L 10.855469 10.023438 L 10.855469 11.460938 C 10.855469 12.25 10.851562 12.894531 10.847656 12.894531 C 10.839844 12.894531 10.757812 12.878906 10.664062 12.855469 C 9.902344 12.667969 9.066406 12.914062 8.492188 13.484375 C 8.082031 13.898438 7.84375 14.441406 7.820312 15.023438 C 7.796875 15.542969 7.921875 16.003906 8.207031 16.425781 C 8.871094 17.410156 10.140625 17.746094 11.1875 17.21875 C 11.734375 16.945312 12.148438 16.472656 12.351562 15.886719 C 12.488281 15.503906 12.480469 15.910156 12.480469 9.675781 L 12.480469 4 L 15.3125 4 Z M 15.3125 4.160156 "/>
</g>
</svg>
